<svg width="209" height="209" viewBox="0 0 209 209" fill="none" xmlns="http://www.w3.org/2000/svg">
    <path d="M193.89 68.72L140.31 15.14C120.58 -4.58997 88.5999 -4.58997 68.8699 15.14L15.2899 68.72C-4.44007 88.45 -4.44007 120.43 15.2899 140.16L68.8699 193.74C88.5999 213.47 120.58 213.47 140.31 193.74L193.89 140.16C213.62 120.43 213.62 88.45 193.89 68.72ZM176.03 122.3L122.45 175.88C112.59 185.74 96.59 185.74 86.73 175.88L33.1499 122.3C23.2899 112.44 23.2899 96.44 33.1499 86.58L86.73 33C96.59 23.14 112.59 23.14 122.45 33L176.03 86.58C185.89 96.44 185.89 112.44 176.03 122.3Z" fill="black"/>
    <path d="M66.1726 82.4931C64.848 79.9384 67.5316 77.1651 70.1285 78.405L103.292 94.2385C104.11 94.6287 105.06 94.6288 105.877 94.2386L139.05 78.4043C141.647 77.1647 144.33 79.9382 143.005 82.4928L107.248 151.442C106.129 153.6 103.041 153.6 101.922 151.441L66.1726 82.4931Z" stroke="black" stroke-width="20" stroke-miterlimit="10"/>
</svg>
